<svg width="100" height="91" viewBox="0 0 100 91" fill="none" xmlns="http://www.w3.org/2000/svg">
<g clip-path="url(#clip0_1163_22)">
<path d="M1.76808 90.1801H29.712C29.7166 90.1801 29.7211 90.1832 29.7272 90.1832H63.8711H98.0151C98.8514 90.1832 99.5302 89.5044 99.5302 88.668V29.871C99.5302 29.3801 99.2923 28.921 98.8923 28.6362C98.4938 28.3513 97.9802 28.2801 97.5166 28.4407L65.3863 39.6347V26.121C65.3863 25.6332 65.1514 25.1741 64.7544 24.8907C64.359 24.6059 63.8469 24.5301 63.3863 24.6847L31.2469 35.5135V9.18771C31.2469 8.35134 30.5681 7.67255 29.7317 7.67255H27.3317V2.24074C27.3317 1.40437 26.6529 0.725586 25.8166 0.725586H5.68323C4.84687 0.725586 4.16808 1.40437 4.16808 2.24074V7.67255H1.76808C0.931718 7.67255 0.25293 8.35134 0.25293 9.18771V88.6635C0.25293 89.5013 0.931718 90.1801 1.76808 90.1801ZM62.3544 28.2286V41.765C62.3544 41.8529 62.3893 41.9286 62.4044 42.012C62.4181 42.0968 62.409 42.1801 62.4378 42.2635C62.4438 42.2801 62.456 42.2907 62.4635 42.3059C62.5029 42.4089 62.5681 42.4953 62.6287 42.5862C62.6787 42.6604 62.7166 42.7438 62.7772 42.8074C62.8408 42.8726 62.9211 42.9165 62.9954 42.9695C63.0787 43.0301 63.1544 43.0983 63.2499 43.1407C63.3226 43.1741 63.4044 43.1816 63.4817 43.2029C63.5954 43.2347 63.7044 43.268 63.8241 43.2726C63.8393 43.2726 63.8529 43.2816 63.8696 43.2816C63.956 43.2816 64.0287 43.2468 64.112 43.2332C64.1984 43.2195 64.2832 43.2271 64.3681 43.1983L96.4984 32.0044V87.1529H63.8696H31.2469V38.7104L62.3544 28.2286ZM7.19838 3.75589H24.2999V7.67255H7.19838V3.75589ZM3.28323 10.7029H5.68323H25.815H28.2151V37.5953C28.2151 37.6044 28.2105 37.6135 28.2105 37.6241V87.1498H3.28323V10.7029Z" fill="white"/>
<path d="M39.23 61.0955H54.377C55.2133 61.0955 55.8921 60.4167 55.8921 59.5803V47.3091C55.8921 46.4727 55.2133 45.7939 54.377 45.7939H39.23C38.3936 45.7939 37.7148 46.4727 37.7148 47.3091V59.5803C37.7148 60.4167 38.3921 61.0955 39.23 61.0955ZM40.7451 48.8258H52.8618V58.0667H40.7451V48.8258Z" fill="white"/>
<path d="M39.23 79.5027H54.377C55.2133 79.5027 55.8921 78.8239 55.8921 77.9875V65.7163C55.8921 64.88 55.2133 64.2012 54.377 64.2012H39.23C38.3936 64.2012 37.7148 64.88 37.7148 65.7163V77.9875C37.7148 78.8239 38.3921 79.5027 39.23 79.5027ZM40.7451 67.2315H52.8618V76.4724H40.7451V67.2315Z" fill="white"/>
<path d="M73.3682 61.0955H88.5152C89.3515 61.0955 90.0303 60.4167 90.0303 59.5803V47.3091C90.0303 46.4727 89.3515 45.7939 88.5152 45.7939H73.3682C72.5318 45.7939 71.853 46.4727 71.853 47.3091V59.5803C71.853 60.4167 72.5318 61.0955 73.3682 61.0955ZM74.8833 48.8258H87V58.0667H74.8833V48.8258Z" fill="white"/>
<path d="M73.3682 79.5027H88.5152C89.3515 79.5027 90.0303 78.8239 90.0303 77.9875V65.7163C90.0303 64.88 89.3515 64.2012 88.5152 64.2012H73.3682C72.5318 64.2012 71.853 64.88 71.853 65.7163V77.9875C71.853 78.8239 72.5318 79.5027 73.3682 79.5027ZM74.8833 67.2315H87V76.4724H74.8833V67.2315Z" fill="white"/>
</g>
<defs>
<clipPath id="clip0_1163_22">
<rect width="100" height="90.9091" fill="white"/>
</clipPath>
</defs>
</svg>
