<svg width="128" height="74" viewBox="0 0 128 74" fill="none" xmlns="http://www.w3.org/2000/svg">
<g clip-path="url(#clip0_1163_18)">
<path d="M111.17 41.2904C113.791 39.5089 115.773 36.9339 116.823 33.9435C117.873 30.953 117.937 27.7047 117.005 24.6753C116.073 21.646 114.194 18.9952 111.645 17.1121C109.095 15.2291 106.009 14.213 102.84 14.213C99.6705 14.213 96.5846 15.2291 94.0351 17.1121C91.4857 18.9952 89.6071 21.646 88.6751 24.6753C87.7432 27.7047 87.807 30.953 88.8572 33.9435C89.9073 36.9339 91.8886 39.5089 94.51 41.2904C91.8115 42.2348 89.295 43.6351 87.07 45.4304C83.2498 42.0976 78.7536 39.6311 73.89 38.2003C77.8336 36.0102 80.9382 32.5724 82.7164 28.4267C84.4946 24.281 84.8456 19.6622 83.7144 15.2954C82.5832 10.9286 80.0338 7.06105 76.4665 4.30008C72.8992 1.5391 68.516 0.0410156 64.005 0.0410156C59.494 0.0410156 55.1108 1.5391 51.5435 4.30008C47.9762 7.06105 45.4268 10.9286 44.2956 15.2954C43.1644 19.6622 43.5154 24.281 45.2936 28.4267C47.0718 32.5724 50.1764 36.0102 54.12 38.2003C49.2564 39.6311 44.7602 42.0976 40.94 45.4304C38.715 43.6351 36.1985 42.2348 33.5 41.2904C36.1245 39.5085 38.1085 36.9321 39.1606 33.9395C40.2127 30.9469 40.2775 27.6957 39.3454 24.6636C38.4134 21.6314 36.5336 18.978 33.9822 17.093C31.4308 15.2081 28.3422 14.1909 25.17 14.1909C21.9978 14.1909 18.9092 15.2081 16.3578 17.093C13.8064 18.978 11.9266 21.6314 10.9946 24.6636C10.0625 27.6957 10.1273 30.9469 11.1794 33.9395C12.2315 36.9321 14.2155 39.5085 16.84 41.2904C11.928 43.0192 7.67189 46.2268 4.65651 50.4723C1.64114 54.7179 0.0144611 59.793 0 65.0004C0 65.5308 0.210714 66.0395 0.585786 66.4146C0.960859 66.7896 1.46957 67.0004 2 67.0004C2.53043 67.0004 3.03914 66.7896 3.41421 66.4146C3.78929 66.0395 4 65.5308 4 65.0004C4.00764 61.0533 5.11857 57.1871 7.20737 53.838C9.29616 50.489 12.2796 47.7906 15.8209 46.0476C19.3622 44.3045 23.3202 43.5861 27.2482 43.9736C31.1761 44.3611 34.9176 45.8389 38.05 48.2403C32.1115 54.7075 28.8206 63.1703 28.83 71.9503C28.83 72.4808 29.0407 72.9895 29.4158 73.3646C29.7909 73.7396 30.2996 73.9503 30.83 73.9503C31.3604 73.9503 31.8691 73.7396 32.2442 73.3646C32.6193 72.9895 32.83 72.4808 32.83 71.9503C32.9763 63.7816 36.3241 55.9968 42.1528 50.2716C47.9814 44.5464 55.8249 41.3386 63.995 41.3386C72.1651 41.3386 80.0086 44.5464 85.8372 50.2716C91.6659 55.9968 95.0137 63.7816 95.16 71.9503C95.16 72.4808 95.3707 72.9895 95.7458 73.3646C96.1209 73.7396 96.6296 73.9503 97.16 73.9503C97.6904 73.9503 98.1991 73.7396 98.5742 73.3646C98.9493 72.9895 99.16 72.4808 99.16 71.9503C99.1694 63.1703 95.8785 54.7075 89.94 48.2403C93.0724 45.836 96.8148 44.3557 100.744 43.9667C104.674 43.5776 108.634 44.2954 112.177 46.0388C115.72 47.7822 118.705 50.4819 120.794 53.8326C122.883 57.1833 123.994 61.0516 124 65.0004C124 65.5308 124.211 66.0395 124.586 66.4146C124.961 66.7896 125.47 67.0004 126 67.0004C126.53 67.0004 127.039 66.7896 127.414 66.4146C127.789 66.0395 128 65.5308 128 65.0004C127.986 59.7942 126.361 54.72 123.348 50.4746C120.334 46.2292 116.08 43.0209 111.17 41.2904ZM14.34 29.0004C14.3459 26.8597 14.9861 24.7688 16.1798 22.9917C17.3734 21.2147 19.0668 19.8313 21.0463 19.0162C23.0257 18.2011 25.2023 17.9909 27.3012 18.4121C29.4 18.8334 31.3269 19.8672 32.8385 21.383C34.3501 22.8988 35.3786 24.8285 35.794 26.9285C36.2095 29.0285 35.9933 31.2045 35.1727 33.1817C34.3521 35.1589 32.964 36.8485 31.1837 38.0372C29.4034 39.2259 27.3107 39.8603 25.17 39.8604C23.7456 39.859 22.3355 39.577 21.0202 39.0304C19.7048 38.4838 18.5101 37.6834 17.5043 36.6748C16.4986 35.6662 15.7014 34.4693 15.1584 33.1525C14.6155 31.8356 14.3374 30.4247 14.34 29.0004ZM47.64 20.3804C47.6479 17.1464 48.6141 13.9873 50.4166 11.3021C52.219 8.61703 54.7769 6.52635 57.767 5.29423C60.7571 4.06212 64.0452 3.74383 67.2161 4.3796C70.387 5.01536 73.2983 6.57665 75.5823 8.86622C77.8663 11.1558 79.4205 14.0709 80.0485 17.2434C80.6765 20.4158 80.3502 23.7032 79.1108 26.6903C77.8714 29.6773 75.7745 32.23 73.085 34.0259C70.3954 35.8218 67.234 36.7803 64 36.7803C59.6627 36.7751 55.5045 35.0497 52.4376 31.9828C49.3706 28.9158 47.6453 24.7577 47.64 20.4204V20.3804ZM92 29.0004C92 26.8584 92.6352 24.7645 93.8252 22.9835C95.0152 21.2025 96.7066 19.8144 98.6855 18.9947C100.664 18.175 102.842 17.9606 104.943 18.3784C107.044 18.7963 108.973 19.8278 110.488 21.3424C112.003 22.857 113.034 24.7867 113.452 26.8875C113.87 28.9883 113.655 31.1659 112.836 33.1448C112.016 35.1237 110.628 36.8151 108.847 38.0052C107.066 39.1952 104.972 39.8304 102.83 39.8304C99.9585 39.8277 97.2054 38.6858 95.175 36.6554C93.1445 34.625 92.0026 31.8718 92 29.0004Z" fill="white"/>
</g>
<defs>
<clipPath id="clip0_1163_18">
<rect width="128" height="74" fill="white"/>
</clipPath>
</defs>
</svg>
