<svg width="100" height="100" viewBox="0 0 100 100" fill="none" xmlns="http://www.w3.org/2000/svg">
<g clip-path="url(#clip0_1163_84)">
<path d="M49.9999 99.0427C22.9591 99.0427 0.957031 77.0407 0.957031 49.9999C0.957031 22.9591 22.9591 0.957031 49.9999 0.957031C77.0407 0.957031 99.0427 22.9591 99.0427 49.9999C99.0427 77.0407 77.0407 99.0427 49.9999 99.0427ZM49.9999 4.87846C25.1193 4.87846 4.87846 25.1193 4.87846 49.9999C4.87846 74.8805 25.1193 95.1213 49.9999 95.1213C74.8805 95.1213 95.1213 74.8805 95.1213 49.9999C95.1213 25.1193 74.8805 4.87846 49.9999 4.87846Z" fill="white"/>
<path d="M92.2715 72.7357C92.1201 72.7357 91.9686 72.7158 91.8211 72.6839C91.4624 72.5962 91.1116 72.4767 90.7729 72.3292C87.4366 70.8782 85.6947 67.7333 84.8179 65.3538C84.0486 63.2651 83.642 61.0569 83.622 58.8327V57.6927C83.63 55.7316 83.642 53.7068 82.5817 52.9096C82.51 52.8578 82.3944 52.79 82.2828 52.7103C81.6729 52.3715 81.1388 51.9011 80.7243 51.339C79.6163 49.7846 80.1264 48.0307 80.4772 46.8748C80.6007 46.5041 80.6924 46.1254 80.7482 45.7427C80.8439 44.822 80.0308 43.6939 79.1937 42.6137C78.3527 41.5335 77.9421 41.4259 77.9381 41.4259H77.9341C77.7827 41.6172 77.6153 41.7966 77.4399 41.968L77.0652 42.3506C75.2117 44.1443 72.4335 44.9255 69.6394 44.4074C66.8452 43.8892 64.5254 42.1792 63.4372 39.8354C63.3575 39.66 63.2778 39.4767 63.1981 39.2933C63.0865 38.9904 62.939 38.7034 62.7556 38.4403C62.5763 38.253 62.377 38.0936 62.1577 37.954C61.9584 37.8145 61.7591 37.671 61.5598 37.5156C59.248 35.7219 58.112 32.4215 58.6102 28.9458C59.0447 26.0719 60.4717 23.477 61.6157 21.3924C61.9744 20.7467 62.7118 19.3995 64.2543 19.0647C65.5777 18.7299 66.6977 19.3995 67.3714 19.7941L67.6185 19.9416C69.8427 21.2649 73.1191 20.6152 74.6577 18.5664C74.9526 18.1678 75.415 17.5261 76.2401 17.1872C77.7867 16.5574 79.0861 17.4184 79.7797 17.8808C81.0234 18.6779 82.6735 18.8772 84.7941 18.4986C85.117 18.4348 85.4877 18.3551 85.8424 18.2514V18.2554C86.3446 18.1119 86.8827 18.1677 87.3412 18.4189C87.7955 18.67 88.1344 19.0925 88.2818 19.5947C88.4253 20.0969 88.3616 20.635 88.1104 21.0935C87.8553 21.5478 87.4328 21.8827 86.9266 22.0262C86.4562 22.1617 85.9659 22.2733 85.4956 22.365C82.3387 22.9111 79.7479 22.5404 77.7669 21.2649L77.6074 21.1572C74.7375 24.6609 69.476 25.6255 65.6493 23.3495L65.3663 23.1821L65.1829 23.0745L65.0554 23.2977C64.0111 25.203 62.8232 27.3634 62.4884 29.5318C62.1974 31.5766 62.7834 33.5177 63.9912 34.4584C64.1347 34.574 64.2702 34.6577 64.4017 34.7573L64.4097 34.7534C64.9199 35.0842 65.3783 35.4868 65.7729 35.9492C66.2034 36.4992 66.5501 37.1091 66.7933 37.7627L66.9806 38.1853C67.5387 39.3811 68.7902 40.266 70.3288 40.5489C71.8713 40.8359 73.3661 40.4533 74.3147 39.5365L74.6136 39.2375C75.1398 38.6954 75.8573 37.9541 76.9495 37.6432C78.8388 37.1449 80.6246 38.0178 82.2986 40.226C83.335 41.5534 84.9174 43.5902 84.6504 46.1333L84.6464 46.1293C84.5707 46.7591 84.4311 47.3769 84.2358 47.9827C84.1163 48.3813 83.9409 48.9792 83.9728 49.1786L83.9768 49.1746C84.1123 49.2344 84.2398 49.3021 84.3594 49.3858C84.5428 49.5014 84.7261 49.617 84.8975 49.7406C87.5681 51.7496 87.5522 55.0578 87.5362 57.7125V58.7808L87.5402 58.7848C87.5601 60.5665 87.883 62.3283 88.4968 63.9984C88.999 65.3656 90.1629 67.7851 92.3034 68.7258C92.435 68.7856 92.5745 68.8334 92.714 68.8693V68.8733C93.6786 69.0965 94.3243 70.0133 94.2128 71.0017C94.1012 71.9902 93.2641 72.7396 92.2716 72.7436L92.2715 72.7357Z" fill="white"/>
<path d="M43.8855 90.2584C43.7181 90.2584 43.5506 90.2464 43.3872 90.2265C41.8207 89.9993 40.8203 88.8872 40.2223 88.2336C39.1302 87.0099 37.9344 85.6666 37.4003 83.837L37.3963 83.833C37.193 83.0558 37.0615 82.2586 37.0136 81.4534C36.9379 80.6084 36.8701 79.875 36.5831 79.3888V79.3848C36.336 79.026 36.045 78.6992 35.7182 78.4122C35.2678 77.9977 34.8572 77.5433 34.4866 77.053C32.6929 74.6136 33.0755 71.7358 33.4183 69.1967C33.6575 67.415 33.8846 65.7289 33.3625 64.4455C32.94 63.4171 31.9475 62.4923 30.8991 61.5118C29.3407 60.0529 27.5748 58.4027 27.1802 55.8677C26.9929 54.6719 27.1802 53.5559 27.3357 52.5673C27.3915 52.2285 27.4473 51.8897 27.4832 51.5509C27.7861 48.7169 26.6621 45.8828 25.1634 42.4709C24.9003 41.873 24.5814 41.1276 24.1988 40.8606C23.9118 40.6613 23.3697 40.5656 22.7917 40.462C21.9706 40.3185 21.0379 40.1511 20.1251 39.6209C18.7619 38.8238 18.0444 37.5323 17.4704 36.4959L17.1436 35.922C16.6174 34.9853 15.7365 33.7815 14.4809 33.1876C13.5322 32.7332 12.3922 32.777 11.7026 33.2872L11.7106 33.2832C11.4555 33.4905 11.2243 33.7217 11.0131 33.9688C10.6543 34.3794 10.2637 34.7541 9.84521 35.0969C8.54981 36.0854 6.8996 36.484 5.29725 36.189C4.77509 36.1133 4.30873 35.8303 3.99787 35.4038C3.68696 34.9813 3.5634 34.4472 3.6471 33.929C3.73479 33.4108 4.02576 32.9484 4.45625 32.6455C4.88673 32.3426 5.42086 32.227 5.93901 32.3227C6.45718 32.4263 6.99125 32.3147 7.42176 32.0078C7.67288 31.8005 7.90805 31.5693 8.1233 31.3182C8.49798 30.8877 8.91252 30.4891 9.36697 30.1343C11.2484 28.7392 13.9149 28.5559 16.179 29.6401C17.893 30.4532 19.4077 31.9439 20.5476 33.9529C20.6592 34.1522 20.7828 34.3635 20.9063 34.5907C21.3049 35.3042 21.6756 35.9858 22.1021 36.2329C22.3971 36.4083 22.9153 36.496 23.4573 36.5917C24.3343 36.7431 25.4264 36.9344 26.4228 37.628C27.7302 38.5288 28.3202 39.8921 28.7506 40.8925C30.1138 43.9936 31.8118 47.8679 31.3734 51.9659C31.3295 52.3725 31.2617 52.7831 31.198 53.1896C31.0704 53.9549 30.9588 54.6803 31.0465 55.2583C31.2338 56.4541 32.3141 57.4666 33.5697 58.6463C34.8213 59.8261 36.2283 61.1336 36.9817 62.9592C37.9025 65.2233 37.5796 67.6148 37.2966 69.7194C37.0216 71.7841 36.7784 73.5658 37.6474 74.7457H37.6553C37.8945 75.0526 38.1615 75.3357 38.4525 75.5947C39.0464 76.1289 39.5646 76.7467 39.9831 77.4283C40.7006 78.656 40.8162 79.9555 40.9198 81.0955V81.0994C40.9517 81.6495 41.0314 82.1995 41.163 82.7337C41.45 83.7143 42.2591 84.6231 43.1161 85.5837C43.5387 86.0541 43.8177 86.3052 43.9532 86.349C43.8575 86.3092 44.0409 86.0461 44.0409 85.8069C44.0528 85.0855 43.5108 84.2285 42.9766 83.4871C42.4425 82.7458 41.7808 81.7971 41.6772 80.5415C41.6055 79.5211 41.9323 78.6601 42.1555 78.0902H42.1595C43.8416 74.0404 46.7075 70.5925 50.3826 68.201C50.7333 67.9778 51.2037 67.6828 51.2914 67.5314C51.2914 67.4676 51.2595 67.0889 51.2356 66.8378H51.2316C51.1877 66.4592 51.1678 66.0805 51.1718 65.7018C51.2834 63.2584 52.9176 61.6561 54.233 60.3685C55.1179 59.5036 55.947 58.6865 56.1862 57.8414C56.3257 57.3471 56.2898 56.6855 56.2539 55.9839V55.98C56.1662 55.0472 56.2061 54.1106 56.3735 53.1898C56.5967 52.0736 57.1149 51.133 57.5693 50.3C57.7607 49.9572 57.948 49.6144 58.1074 49.2636V49.2596C58.6495 47.9642 58.6495 46.5054 58.1074 45.2099C57.8364 44.5641 57.3102 43.7191 56.3138 43.3604C55.7159 43.1451 54.9346 43.1053 54.1095 43.0574C53.1608 43.0056 52.0886 42.9458 51.0164 42.603C48.5531 41.8537 46.8311 39.9125 45.3085 38.1985C43.8257 36.5245 42.5502 35.0815 40.9876 35.0416C40.1267 34.9419 39.0664 35.5 37.9743 36.0062C37.6036 36.1816 37.2329 36.349 36.8662 36.5084C34.108 37.7042 31.6287 37.5926 29.8908 36.1896C28.5237 35.0855 28.0493 33.503 27.6746 32.2275C27.4195 31.3825 27.1803 30.5773 26.7738 30.1986C26.1201 29.6007 24.5815 29.7482 23.2262 29.8837L22.9591 29.9077C19.595 30.2265 17.0918 29.1742 16.0873 27.0179H16.0793C15.5293 25.8022 15.5452 24.4031 16.1232 23.1993C16.8845 21.593 18.2916 20.3852 19.9976 19.875C21.9268 19.3289 23.8281 19.6079 25.5022 19.8511C25.8768 19.9029 26.2515 19.9587 26.6262 20.0026C27.9296 20.162 29.6516 20.17 30.4767 19.2931C30.9151 18.8347 31.218 18.0535 31.5409 17.2284C32.1149 15.7536 32.8324 13.924 34.7297 13.0072H34.7337C35.212 12.7761 35.7182 12.6087 36.2404 12.497C36.4637 12.4532 36.6869 12.3854 36.9061 12.2977C37.4442 12.0426 37.8747 11.2215 38.3251 10.3526C38.9867 9.07714 39.8158 7.49071 41.5298 6.68152C42.9408 5.98796 44.4235 6.12747 45.6154 6.24306C45.9183 6.27495 46.2133 6.29887 46.5162 6.31481C47.7837 6.35866 49.0354 6.00789 50.1035 5.31832C50.9007 4.84001 51.0482 3.9471 50.9486 3.32536H50.9526C50.8131 2.27312 51.5385 1.30046 52.5908 1.1371C53.6391 0.969689 54.6316 1.66723 54.8269 2.71159C55.2335 5.04342 54.1932 7.3871 52.1923 8.65067C50.4544 9.74679 48.4255 10.2969 46.3688 10.2291C46.0101 10.2132 45.6394 10.1813 45.2687 10.1414C44.4715 10.0617 43.7062 9.98998 43.2757 10.2052C42.7257 10.4683 42.2952 11.2894 41.8448 12.1584C41.1792 13.4339 40.3541 15.0203 38.6401 15.8295V15.8335C38.1817 16.0408 37.6994 16.2002 37.2052 16.3038C36.97 16.3477 36.7389 16.4155 36.5196 16.5031C35.9616 16.7742 35.6188 17.6392 35.2282 18.6397C34.8017 19.7318 34.3194 20.9674 33.3548 21.9799C31.7924 23.6301 29.3689 24.2718 26.1801 23.8892C25.7815 23.8413 25.367 23.7775 24.9604 23.7217C23.5454 23.5225 22.2141 23.3232 21.1021 23.6341V23.6301C20.5042 23.8254 20.006 24.2479 19.7189 24.8059C19.5674 25.1407 19.6392 25.3002 19.6631 25.352C19.9023 25.8701 21.114 26.1213 22.5968 25.9897L22.8599 25.9658C24.813 25.7785 27.4916 25.5114 29.4367 27.3011C30.6405 28.4172 31.0869 29.904 31.4416 31.0877C31.7007 31.9567 31.9438 32.7777 32.3703 33.1206C32.8765 33.5312 34.0364 33.4395 35.3199 32.8814C35.6587 32.738 35.9896 32.5825 36.3164 32.427C37.6956 31.7813 39.274 31.0917 41.0836 31.0878C44.3521 31.1754 46.4209 33.5033 48.2424 35.56C49.5339 37.0149 50.7496 38.39 52.1806 38.8205C52.8064 39.0198 53.5437 39.0597 54.3291 39.1035C55.3455 39.1593 56.4974 39.2231 57.6454 39.6376C59.4629 40.2993 60.9059 41.7183 61.7191 43.6475L61.727 43.6515C62.6916 45.9514 62.6797 48.5503 61.6872 50.8383C61.4879 51.2927 61.2447 51.7311 61.0056 52.1616C60.6548 52.8034 60.32 53.4093 60.2084 53.9553V53.9593C60.1207 54.5532 60.1047 55.1551 60.1645 55.753C60.2124 56.6976 60.2682 57.7619 59.9572 58.878C59.4351 60.7274 58.1277 62.0109 56.9678 63.143C55.8079 64.271 55.1183 65.0163 55.0784 65.8136V65.8096C55.0824 66.0168 55.0983 66.2201 55.1222 66.4234C55.19 67.105 55.2817 68.0417 54.899 68.9983C54.3649 70.2818 53.3046 70.9475 52.5433 71.4377H52.5473C49.5339 73.3909 47.1782 76.2089 45.7871 79.5213C45.6954 79.7445 45.6276 79.9797 45.5878 80.2188C45.5997 80.3782 45.9465 80.8725 46.1578 81.1675C47.0745 82.443 47.9953 83.9855 47.9674 85.847V85.843C47.9395 87.1703 47.3535 88.4258 46.3491 89.2948C45.6715 89.9047 44.7946 90.2475 43.8857 90.2594L43.8855 90.2584Z" fill="white"/>
</g>
<defs>
<clipPath id="clip0_1163_84">
<rect width="100" height="100" fill="white"/>
</clipPath>
</defs>
</svg>
