<svg width="52" height="98" viewBox="0 0 52 98" fill="none" xmlns="http://www.w3.org/2000/svg">
<g clip-path="url(#clip0_1163_91)">
<path d="M18.9302 0.0390625H44.5982C45.8677 0.0390625 46.8951 1.06636 46.8951 2.33596C46.8951 2.67971 46.8209 3.00393 46.6842 3.2969L33.4302 38.4729H49.1292C50.3987 38.4729 51.426 39.5002 51.426 40.7698C51.426 41.305 51.2425 41.7971 50.9339 42.1878L13.4139 96.9648C12.7029 98.0078 11.2733 98.2773 10.2303 97.5664C9.4412 97.0273 9.09356 96.082 9.28104 95.1992L17.4724 57.0662H2.87844C1.61284 57.0662 0.581543 56.0389 0.581543 54.7693C0.581543 54.4607 0.640136 54.1677 0.753422 53.8982L16.7494 1.67517C17.0502 0.686892 17.9564 0.0540725 18.9369 0.0540725V0.0462594L18.9302 0.0390625ZM41.2852 4.62886H20.6172L5.96119 52.4729H20.3012V52.4768C20.4574 52.4768 20.6176 52.4963 20.7778 52.5275C22.0122 52.7893 22.8051 54.0081 22.5434 55.2424L16.1996 84.7853L44.7775 43.0624H30.1176V43.0545C29.8519 43.0545 29.5785 43.0077 29.309 42.9061C28.1254 42.4608 27.5278 41.1405 27.9731 39.9569L41.2851 4.6249L41.2852 4.62886Z" fill="white"/>
</g>
<defs>
<clipPath id="clip0_1163_91">
<rect width="52" height="98" fill="white"/>
</clipPath>
</defs>
</svg>
