<svg width="100" height="100" viewBox="0 0 100 100" fill="none" xmlns="http://www.w3.org/2000/svg">
<g clip-path="url(#clip0_1163_71)">
<path d="M87.6178 65.8535V55.4693C91.0316 54.5498 93.4039 51.4654 93.4039 47.9173V47.1075C96.594 47.1075 99.1901 44.5115 99.1901 41.3214C99.1901 38.1313 96.594 35.5352 93.4039 35.5352H93.3022C93.7498 32.4346 92.7529 29.1917 90.3644 26.8561C91.284 22.3598 87.8294 18.1729 83.2761 18.1729C78.727 18.1729 75.2683 22.3598 76.1879 26.8561C73.7994 29.1917 72.8066 32.4347 73.2501 35.5312H73.1484C69.9583 35.5312 67.3622 38.1272 67.3622 41.3173C67.3622 42.7821 67.9075 44.1168 68.8108 45.1382V50.7209C68.8108 52.7188 67.1913 54.3383 65.1934 54.3383C63.1995 54.3383 61.576 52.7147 61.576 50.7209V47.7709C63.3054 46.7699 64.469 44.8982 64.469 42.7619C64.469 39.9258 62.4223 37.5617 59.7245 37.0694C61.2992 32.8173 58.1336 28.2925 53.6169 28.2925H40.5961C37.8129 28.2925 35.3634 30.087 34.4601 32.6342C31.4856 32.679 30.8915 32.5203 29.7482 32.8173L29.7441 28.3007C29.7441 24.3131 26.5011 21.0661 22.5094 21.0661C19.9541 21.0661 17.708 22.3966 16.4221 24.4026C15.1119 23.2145 13.3866 22.5146 11.5596 22.5146C7.57202 22.5146 4.32494 25.7576 4.32494 29.7493V35.0756C2.33108 38.0664 2.40025 42.0134 4.50804 44.939C0.80523 50.0741 3.72679 57.4838 10.1111 58.5619V65.943C4.40627 65.528 -0.370187 70.834 1.06158 76.6732C0.902897 76.9052 0.80524 77.19 0.80524 77.4952V89.6285C0.80524 94.906 5.09805 99.1948 10.3715 99.1948H89.6152C94.8927 99.1948 99.1815 94.902 99.1815 89.6285V71.2004C99.1896 64.7266 91.6465 62.285 87.6178 65.8535ZM88.3461 69.951C89.8313 65.3775 96.297 66.6591 96.297 71.1921V76.0423H54.524C53.2871 71.2693 58.2838 67.2573 62.6621 69.3895C63.484 69.7923 64.4687 69.3366 64.6965 68.4495C65.5185 65.2553 68.3993 63.0215 71.7034 63.0215C74.8609 63.0215 77.6279 65.0397 78.5923 68.0467C78.8283 68.7791 79.5973 69.2023 80.342 69.0029C82.3032 68.4821 84.4435 69.0111 85.945 70.5247C86.7059 71.2937 88.0125 70.9846 88.3461 69.951ZM31.193 76.0424C31.193 73.9061 32.7799 71.9856 35.0463 71.7292C36.088 71.6112 36.6618 70.4597 36.1328 69.5564C35.8195 69.0234 35.6364 68.4618 35.5672 67.9044C35.5631 67.8638 35.5591 67.819 35.555 67.7783C35.3271 65.3695 37.1907 63.0176 39.8762 63.0176C41.0888 63.0176 42.2525 63.5303 43.0745 64.4214C43.5668 64.9585 44.3847 65.044 44.9787 64.6208C48.8972 61.8335 54.2195 62.8223 56.9621 66.5089C53.243 67.9819 50.8667 71.9573 51.5666 76.0344C32.1895 76.0425 40.6336 76.0424 31.193 76.0424ZM30.2409 65.9675C29.0079 63.3145 26.709 61.3613 23.9584 60.5476V57.1133C30.0293 56.092 33.0729 49.2479 29.952 44.08C30.9896 44.3078 31.425 44.1776 35.5347 44.2143V49.3656C35.5347 52.9137 37.9069 55.9981 41.3209 56.9177V60.2787C37.3292 59.4609 33.488 62.1098 32.7555 66.0649C31.9255 65.9062 31.0791 65.8739 30.2409 65.9675ZM13.0086 64.1161V58.5579C14.8966 58.2405 16.6177 57.3169 17.9157 55.913C18.8598 56.503 19.9259 56.918 21.0651 57.1133V60.1284C17.8262 60.1284 14.8803 61.6626 13.0086 64.1161ZM38.6106 44.2151C39.0013 45.7328 39.9981 47.0064 41.3206 47.7755V53.8546C39.5831 53.0692 38.4276 51.3317 38.4276 49.3664V44.2151H38.6106ZM52.8929 48.5527V49.3624C52.8929 51.3277 51.7373 53.0652 49.9999 53.8505V48.5527L52.8929 48.5527ZM47.1068 60.4912C46.1465 60.7394 45.1985 61.1178 44.2911 61.6347C44.2666 61.6143 44.2382 61.598 44.2138 61.5777V48.5527H47.1068L47.1068 60.4912ZM76.0412 47.1079H78.9342V52.4057C77.1967 51.6204 76.0412 49.8829 76.0412 47.9176V47.1079ZM84.7244 66.4068C83.7845 66.0773 82.8038 65.9145 81.8314 65.9145L81.8273 47.1072H84.7203L84.7244 66.4068ZM90.5105 47.9173C90.5105 49.8826 89.3549 51.6201 87.6175 52.4054V47.1076H90.5105V47.9173ZM73.148 38.4283H78.9342C79.7317 38.4283 80.3827 37.7813 80.3827 36.9798C80.3827 36.1822 79.7358 35.5312 78.9342 35.5312H76.1917C75.6668 32.9637 76.5579 30.2171 78.7307 28.4592C79.2068 28.0727 79.3899 27.4298 79.1865 26.852C78.1814 24.0117 80.3054 21.0617 83.2799 21.0617C86.2585 21.0617 88.3743 24.0199 87.3733 26.852C87.1699 27.4298 87.3489 28.0727 87.8291 28.4592C90.2787 30.4408 91.1005 33.6757 90.1037 36.4955C89.77 37.4395 90.4739 38.4242 91.4668 38.4242H93.4077C95.0027 38.4242 96.3007 39.7223 96.3007 41.3173C96.3007 42.9123 95.0027 44.2103 93.4077 44.2103H73.1525C71.5575 44.2103 70.2595 42.9123 70.2595 41.3173C70.2554 39.7263 71.553 38.4283 73.148 38.4283ZM65.1931 57.2356C66.9306 57.2356 68.5664 56.5601 69.7952 55.3273C71.0241 54.0984 71.7036 52.4627 71.7036 50.7252V46.9248C72.1674 47.0428 72.6516 47.1079 73.1521 47.1079V47.9176C73.1521 51.4657 75.5243 54.5501 78.9382 55.4697V63.1601C73.9415 58.0576 65.2747 59.6201 62.4143 66.22C61.6412 66.0084 60.8355 65.9108 60.0257 65.9189C57.9221 62.2771 54.0362 60.1409 50.0038 60.1287L49.9997 56.9142C53.4136 55.9946 55.7858 52.9102 55.7858 49.3621V48.5524H58.6789V50.7211C58.6829 54.3141 61.6002 57.2356 65.1931 57.2356ZM22.5129 23.9596C24.9055 23.9596 26.8546 25.9086 26.8546 28.3012C26.879 34.3478 26.7976 34.1565 26.9238 34.5309C24.9299 36.712 24.8974 40.0322 26.8587 42.2539C26.7895 42.3312 26.7203 42.4086 26.6512 42.4818C26.0978 43.0433 26.0978 43.9466 26.6512 44.5082C29.7762 47.6942 28.2584 53.053 23.9656 54.1639L23.9575 47.1083C23.9575 46.3107 23.3105 45.6597 22.509 45.6597C21.7114 45.6597 21.0604 46.3067 21.0604 47.1083V54.1598C16.7717 53.053 15.2499 47.6901 18.3749 44.5041C18.9283 43.9426 18.9283 43.0393 18.3749 42.4777C16.3526 40.4147 16.1776 37.2165 17.8744 34.9541C18.0616 34.7018 18.1633 34.3966 18.1633 34.0833C18.1836 27.5932 18.1104 28.3542 18.2325 27.52C18.6109 25.4977 20.3848 23.9596 22.5129 23.9596ZM7.4296 45.9523C7.98299 45.3907 7.98299 44.4875 7.4296 43.9259C5.40325 41.8588 5.23637 38.6606 6.92911 36.4023C7.11629 36.15 7.21801 35.8448 7.21801 35.5315V29.7454C7.21801 27.3527 9.16707 25.4037 11.5597 25.4037C13.11 25.4037 14.5423 26.2419 15.3154 27.5684C15.2503 28.2153 15.291 28.256 15.2788 33.6231C13.2849 36.6138 13.3541 40.5608 15.4619 43.4864C13.2076 46.6114 13.2768 50.9164 15.7549 53.9885C15.0062 54.7779 14.0581 55.3353 13.0083 55.6039V52.8939C13.0083 52.0964 12.3613 51.4454 11.5598 51.4454C10.7622 51.4454 10.1112 52.0923 10.1112 52.8939V55.6039C5.82652 54.4971 4.3046 49.1342 7.4296 45.9523ZM96.2963 89.621C96.2963 93.2993 93.3015 96.2941 89.6231 96.2941H10.3794C6.70106 96.2941 3.70627 93.2993 3.70627 89.621L3.7022 78.9356H96.297L96.2963 89.621Z" fill="white"/>
<path d="M32.6418 84.721C32.6418 83.9235 31.9948 83.2725 31.1932 83.2725H16.7234C15.9259 83.2725 15.2749 83.9194 15.2749 84.721C15.2749 85.5185 15.9219 86.1695 16.7234 86.1695H31.1932C31.9908 86.1695 32.6418 85.5226 32.6418 84.721Z" fill="white"/>
<path d="M34.0867 89.0625H31.1937C30.3961 89.0625 29.7451 89.7095 29.7451 90.511C29.7451 91.3086 30.3921 91.9596 31.1937 91.9596H34.0867C34.8842 91.9596 35.5352 91.3126 35.5352 90.511C35.5352 89.7095 34.8842 89.0625 34.0867 89.0625Z" fill="white"/>
<path d="M48.5552 86.1692C48.5552 86.9668 49.2021 87.6178 50.0037 87.6178H60.1315C60.9291 87.6178 61.5801 86.9708 61.5801 86.1692C61.5801 85.3717 60.9331 84.7207 60.1315 84.7207H50.0037C49.2021 84.7207 48.5552 85.3677 48.5552 86.1692Z" fill="white"/>
<path d="M65.9134 87.6139H67.3619C68.1595 87.6139 68.8105 86.9669 68.8105 86.1653C68.8105 85.3678 68.1635 84.7168 67.3619 84.7168H65.9134C65.1159 84.7168 64.4648 85.3638 64.4648 86.1653C64.4689 86.9669 65.1159 87.6139 65.9134 87.6139Z" fill="white"/>
<path d="M49.276 18.1718H64.4656C69.2508 18.1718 73.1448 14.2777 73.1448 9.49264C73.1448 4.70754 69.2507 0.813477 64.4656 0.813477C60.1728 0.813477 56.5961 3.9466 55.9043 8.04816H49.2718C46.4805 8.04816 44.21 10.3187 44.21 13.11C44.214 15.9014 46.4846 18.1718 49.276 18.1718Z" fill="white"/>
<path d="M23.9585 10.9371C24.756 10.9371 25.407 11.5841 25.407 12.3857C25.407 13.1832 26.054 13.8342 26.8556 13.8342C27.6531 13.8342 28.3041 13.1872 28.3041 12.3857C28.3041 11.5881 28.9511 10.9371 29.7527 10.9371C30.5502 10.9371 31.2012 10.2902 31.2012 9.48858C31.2012 8.69106 30.5542 8.04004 29.7527 8.04004C28.6418 8.04004 27.6286 8.45914 26.8596 9.14681C26.0906 8.45914 25.0775 8.04004 23.9666 8.04004C23.1691 8.04004 22.5181 8.68701 22.5181 9.48858C22.514 10.2902 23.161 10.9371 23.9585 10.9371Z" fill="white"/>
<path d="M34.0864 16.7242C34.884 16.7242 35.535 17.3712 35.535 18.1728C35.535 18.9703 36.1819 19.6213 36.9835 19.6213C37.781 19.6213 38.4321 18.9743 38.4321 18.1728C38.4321 17.3753 39.079 16.7242 39.8806 16.7242C40.6781 16.7242 41.3291 16.0773 41.3291 15.2757C41.3291 14.4782 40.6822 13.8271 39.8806 13.8271C38.7698 13.8271 37.7565 14.2463 36.9876 14.9339C36.2185 14.2463 35.2054 13.8271 34.0946 13.8271C33.297 13.8271 32.646 14.4741 32.646 15.2757C32.6419 16.0773 33.2889 16.7242 34.0864 16.7242Z" fill="white"/>
<path d="M65.9138 23.6205C65.1448 22.9328 64.1316 22.5137 63.0208 22.5137C62.2233 22.5137 61.5723 23.1607 61.5723 23.9622C61.5723 24.7598 62.2192 25.4108 63.0208 25.4108C63.8183 25.4108 64.4693 26.0578 64.4693 26.8593C64.4693 27.6568 65.1163 28.3079 65.9179 28.3079C66.7154 28.3079 67.3664 27.6609 67.3664 26.8593C67.3664 26.0618 68.0134 25.4108 68.815 25.4108C69.6125 25.4108 70.2635 24.7638 70.2635 23.9622C70.2635 23.1647 69.6165 22.5137 68.815 22.5137C67.696 22.5096 66.6829 22.9328 65.9138 23.6205Z" fill="white"/>
</g>
<defs>
<clipPath id="clip0_1163_71">
<rect width="100" height="100" fill="white"/>
</clipPath>
</defs>
</svg>
