<svg width="100" height="100" viewBox="0 0 100 100" fill="none" xmlns="http://www.w3.org/2000/svg">
<g clip-path="url(#clip0_1163_31)">
<path fill-rule="evenodd" clip-rule="evenodd" d="M45.471 0.181641V18.5464C26.5778 20.6349 11.5766 35.6363 9.4879 54.5295H0.181152V63.5874H9.23912V90.7614H0.181152V99.8193H99.8188V90.7614H90.7609V63.5874H99.8188V54.5295H90.5122C88.4235 35.6363 73.4221 20.6349 54.529 18.5464V13.7686H63.5869V0.181641H45.471ZM63.591 63.5874L63.5869 90.7614H54.529V63.5874H63.591ZM18.6183 54.5295C20.8159 39.1658 34.0286 27.3556 50 27.3556C65.9715 27.3556 79.1839 39.1658 81.3818 54.5295H18.6183ZM81.7029 63.5874V90.7614H72.6449V63.5874H81.7029ZM45.471 63.5874V90.7614H36.413V63.5874H45.471ZM27.3551 90.7614V63.5874H18.2971V90.7614H27.3551Z" fill="white"/>
</g>
<defs>
<clipPath id="clip0_1163_31">
<rect width="100" height="100" fill="white"/>
</clipPath>
</defs>
</svg>
