<svg width="100" height="99" viewBox="0 0 100 99" fill="none" xmlns="http://www.w3.org/2000/svg">
<g clip-path="url(#clip0_1163_35)">
<path d="M38.6566 9.25373C39.5521 9.25373 40.1491 8.65672 40.1491 7.76119V1.49254C40.1491 0.597015 39.5521 0 38.6566 0C37.7611 0 37.1641 0.597015 37.1641 1.49254V7.76119C37.1641 8.65672 37.7611 9.25373 38.6566 9.25373Z" fill="white"/>
<path d="M77.1644 38.806C77.1644 37.9105 76.5674 37.3135 75.6718 37.3135H69.4032C68.5077 37.3135 67.9106 37.9105 67.9106 38.806C67.9106 39.7015 68.5077 40.2986 69.4032 40.2986H75.6718C76.5674 40.2986 77.1644 39.5523 77.1644 38.806Z" fill="white"/>
<path d="M9.25373 38.806C9.25373 37.9105 8.65672 37.3135 7.76119 37.3135H1.49254C0.597015 37.3135 0 37.9105 0 38.806C0 39.7015 0.597015 40.2986 1.49254 40.2986H7.76119C8.50746 40.2986 9.25373 39.5523 9.25373 38.806Z" fill="white"/>
<path d="M61.4924 17.9104L65.97 13.4328C66.567 12.8358 66.567 11.9403 65.97 11.3433C65.373 10.7463 64.4775 10.7463 63.8805 11.3433L59.4028 15.8209C58.8058 16.4179 58.8058 17.3134 59.4028 17.9104C59.9999 18.5074 60.8954 18.5074 61.4924 17.9104Z" fill="white"/>
<path d="M15.6715 17.9104C16.2685 18.5074 17.164 18.5074 17.761 17.9104C18.358 17.3134 18.358 16.4179 17.761 15.8209L13.2834 11.3433C12.6864 10.7463 11.7909 10.7463 11.1939 11.3433C10.5968 11.9403 10.5968 12.8358 11.1939 13.4328L15.6715 17.9104Z" fill="white"/>
<path d="M67.7612 49.1046C67.015 48.8061 66.1194 49.1046 65.8209 49.8509C65.5224 50.5972 65.8209 51.4927 66.5672 51.7912L72.3881 54.1792C73.1344 54.4778 74.0299 54.1792 74.3284 53.433C74.6269 52.6867 74.3284 51.7912 73.5821 51.4927L67.7612 49.1046Z" fill="white"/>
<path d="M3.73121 26.1192L9.40285 28.358C10.1491 28.6565 11.0446 28.358 11.3432 27.6117C11.6417 26.8654 11.3432 25.9699 10.5969 25.6714L4.77599 23.2833C4.02972 22.9848 3.1342 23.2833 2.83569 24.0296C2.53718 24.9251 2.98494 25.6714 3.73121 26.1192Z" fill="white"/>
<path d="M49.7015 11.4929C50.4477 11.7915 51.3433 11.4929 51.6418 10.7467L54.0298 4.92578C54.3283 4.17951 54.0298 3.28399 53.2836 2.98548C52.5373 2.68698 51.6418 2.98548 51.3433 3.73175L48.9552 9.55265C48.6567 10.2989 48.9552 11.1944 49.7015 11.4929Z" fill="white"/>
<path d="M25.2236 10.7467C25.5221 11.4929 26.4177 11.9407 27.1639 11.4929C27.9102 11.1944 28.2087 10.2989 27.9102 9.55265L25.5221 3.73175C25.2236 2.98548 24.3281 2.68698 23.5818 2.98548C22.8356 3.28399 22.5371 4.17951 22.8356 4.92578L25.2236 10.7467Z" fill="white"/>
<path d="M9.55216 49.4035L3.73126 51.7915C2.98499 52.09 2.68649 52.9855 2.98499 53.7318C3.2835 54.4781 4.17902 54.7766 4.92529 54.4781L10.7462 52.09C11.4925 51.7915 11.791 50.896 11.4925 50.1497C11.1939 49.4035 10.2984 49.1049 9.55216 49.4035Z" fill="white"/>
<path d="M72.2387 22.9855L66.4178 25.3735C65.6715 25.6721 65.373 26.5676 65.6715 27.3138C65.97 28.0601 66.8655 28.3586 67.6118 28.0601L73.4327 25.6721C74.179 25.3735 74.4775 24.478 74.179 23.7318C73.8805 22.9855 72.985 22.687 72.2387 22.9855Z" fill="white"/>
<path d="M97.6118 85.9704L87.4626 66.5674C87.0148 65.8212 86.1193 65.5227 85.5223 65.9704L82.985 67.1645L78.6566 59.1048C89.7014 51.1943 93.1342 36.5674 86.8656 24.4779C83.4327 17.9107 77.7611 13.1346 70.7462 10.8958C69.9999 10.5973 69.1044 11.0451 68.8059 11.9406C68.5073 12.6869 68.9551 13.5824 69.8506 13.8809C76.1193 15.8212 81.1939 20.1495 84.3282 25.9704C90.4476 37.7615 86.2685 52.3883 73.8805 58.8063C68.0596 61.7913 61.1939 62.3883 54.6267 60.1495C55.373 58.9555 56.4178 57.7615 57.3133 56.7167C61.9402 51.7913 64.4775 45.2242 64.4775 38.2092C64.4775 23.1346 51.9402 11.0451 37.1641 11.9406C24.4775 12.5376 14.0297 22.9854 12.985 35.8212C12.2387 43.5824 14.9253 51.3436 20.2984 56.866C24.4775 61.1943 27.0148 66.7167 27.6118 72.5376H23.8805C22.5372 72.5376 21.4924 73.5824 21.4924 74.9257V85.0749C21.4924 86.4182 22.5372 87.463 23.8805 87.463H29.9999V90.0003H25.5223C24.6267 90.0003 24.0297 90.5973 24.0297 91.4928C24.0297 92.3883 24.6267 92.9854 25.5223 92.9854H29.9999V97.0152C29.9999 97.9107 30.5969 98.5077 31.4924 98.5077H47.0148C47.9103 98.5077 48.5073 97.9107 48.5073 97.0152V92.9854H52.985C53.8805 92.9854 54.4775 92.3883 54.4775 91.4928C54.4775 90.5973 53.8805 90.0003 52.985 90.0003H48.5073V87.3137H53.7312C54.3282 87.3137 54.9253 87.0152 55.373 86.5674C55.8208 86.1197 56.1193 85.5227 56.1193 84.9257V74.7764C56.1193 73.4331 55.0745 72.3883 53.7312 72.3883H49.9999C50.2984 68.9555 51.3432 65.6719 52.8357 62.6868C58.8059 64.9257 64.9253 64.9257 71.0447 62.9854L75.373 71.0451L72.985 72.2391C72.6865 72.3883 72.3879 72.6868 72.2387 73.1346C72.0894 73.5824 72.0894 73.8809 72.3879 74.3286L82.5372 93.8809C84.776 98.06 89.8506 99.5525 94.0297 97.463C98.0596 95.2242 99.7014 90.1495 97.6118 85.9704ZM45.5223 95.5227H32.985V87.463H45.5223V95.5227ZM15.8208 36.1197C16.8656 24.6271 25.97 15.5227 37.1641 14.7764C50.2984 14.0301 61.3432 24.7764 61.3432 38.06C61.3432 44.1794 59.1044 50.0003 54.9253 54.4779C50.2984 59.4033 47.4626 65.8212 46.8656 72.3883H40.2984V49.1048L49.5521 39.851C50.1491 39.254 50.1491 38.3585 49.5521 37.7615C48.9551 37.1645 48.0596 37.1645 47.4626 37.7615L38.8059 46.4182L30.2984 37.7615C29.7014 37.1645 28.8059 37.1645 28.2088 37.7615C27.6118 38.3585 27.6118 39.254 28.2088 39.851L37.3133 49.1048V72.3883H30.4476C29.8506 65.8212 27.0148 59.5525 22.2387 54.6271C17.6118 49.851 15.2238 43.1346 15.8208 36.1197ZM53.1342 84.3286L24.4775 84.4779V75.5227C44.6267 75.3734 32.985 75.5227 53.1342 75.3734V84.3286ZM73.8805 61.9406C74.776 61.4928 75.2238 61.3436 76.1193 60.7466L80.2984 68.5077L78.0596 69.7018L73.8805 61.9406ZM92.5372 94.7764C89.8506 96.1197 86.567 95.0749 85.0745 92.3883L75.5223 74.1794C87.0148 68.2092 80.1491 71.7913 85.373 69.1048L94.776 87.3137C96.2685 90.1495 95.2238 93.4331 92.5372 94.7764Z" fill="white"/>
</g>
<defs>
<clipPath id="clip0_1163_35">
<rect width="100" height="98.5075" fill="white"/>
</clipPath>
</defs>
</svg>
