<svg width="215" height="45" viewBox="0 0 215 45" fill="none" xmlns="http://www.w3.org/2000/svg">
<mask id="mask0_402_93" style="mask-type:alpha" maskUnits="userSpaceOnUse" x="0" y="8" width="32" height="29">
<ellipse cx="16" cy="22.5" rx="16" ry="14.5" fill="white"/>
</mask>
<g mask="url(#mask0_402_93)">
<path d="M15.6 24.3125C7.27998 16.7725 0.399976 21.1708 -2.00002 24.3125L-10.4 36.275L6.39998 55.125L36.8 46.425L32 22.1375C30 26.0042 23.92 31.8525 15.6 24.3125Z" fill="#D9D9D9"/>
</g>
<path d="M54.984 34.98C52.68 34.98 50.7067 34.4787 49.064 33.476C47.4213 32.4627 46.1573 31.0547 45.272 29.252C44.3973 27.4493 43.96 25.3587 43.96 22.98C43.96 20.6013 44.3973 18.5107 45.272 16.708C46.1573 14.9053 47.4213 13.5027 49.064 12.5C50.7067 11.4867 52.68 10.98 54.984 10.98C57.288 10.98 59.2613 11.4867 60.904 12.5C62.5573 13.5027 63.8213 14.9053 64.696 16.708C65.5813 18.5107 66.024 20.6013 66.024 22.98C66.024 25.3587 65.5813 27.4493 64.696 29.252C63.8213 31.0547 62.5573 32.4627 60.904 33.476C59.2613 34.4787 57.288 34.98 54.984 34.98ZM54.984 31.348C56.5307 31.3587 57.816 31.0173 58.84 30.324C59.8747 29.6307 60.648 28.6547 61.16 27.396C61.6827 26.1373 61.944 24.6653 61.944 22.98C61.944 21.2947 61.6827 19.8333 61.16 18.596C60.648 17.348 59.8747 16.3773 58.84 15.684C57.816 14.9907 56.5307 14.6333 54.984 14.612C53.4373 14.6013 52.152 14.9427 51.128 15.636C50.104 16.3293 49.3307 17.3053 48.808 18.564C48.296 19.8227 48.04 21.2947 48.04 22.98C48.04 24.6653 48.296 26.132 48.808 27.38C49.32 28.6173 50.088 29.5827 51.112 30.276C52.1467 30.9693 53.4373 31.3267 54.984 31.348ZM76.7128 34.98C74.9314 34.98 73.4114 34.5853 72.1528 33.796C70.8941 32.996 69.9288 31.908 69.2568 30.532C68.5954 29.156 68.2594 27.5987 68.2488 25.86C68.2594 24.0893 68.6061 22.5213 69.2888 21.156C69.9821 19.78 70.9634 18.7027 72.2328 17.924C73.5021 17.1347 75.0114 16.74 76.7608 16.74C78.7234 16.74 80.3821 17.236 81.7368 18.228C83.1021 19.2093 83.9928 20.5533 84.4088 22.26L80.5688 23.3C80.2701 22.372 79.7741 21.652 79.0808 21.14C78.3874 20.6173 77.5981 20.356 76.7128 20.356C75.7101 20.356 74.8834 20.596 74.2328 21.076C73.5821 21.5453 73.1021 22.196 72.7928 23.028C72.4834 23.86 72.3288 24.804 72.3288 25.86C72.3288 27.5027 72.6968 28.8307 73.4328 29.844C74.1688 30.8573 75.2621 31.364 76.7128 31.364C77.7368 31.364 78.5421 31.1293 79.1288 30.66C79.7261 30.1907 80.1741 29.5133 80.4728 28.628L84.4088 29.508C83.8754 31.268 82.9421 32.6227 81.6088 33.572C80.2754 34.5107 78.6434 34.98 76.7128 34.98ZM95.0023 34.98C93.2529 34.98 91.7169 34.6013 90.3943 33.844C89.0716 33.0867 88.0369 32.036 87.2903 30.692C86.5543 29.348 86.1863 27.8013 86.1863 26.052C86.1863 24.164 86.5489 22.5267 87.2743 21.14C87.9996 19.7427 89.0076 18.66 90.2983 17.892C91.5889 17.124 93.0823 16.74 94.7783 16.74C96.5703 16.74 98.0903 17.1613 99.3383 18.004C100.597 18.836 101.53 20.0147 102.138 21.54C102.746 23.0653 102.976 24.8627 102.826 26.932H99.0023V25.524C98.9916 23.6467 98.6609 22.276 98.0103 21.412C97.3596 20.548 96.3356 20.116 94.9383 20.116C93.3596 20.116 92.1863 20.6067 91.4183 21.588C90.6503 22.5587 90.2663 23.9827 90.2663 25.86C90.2663 27.6093 90.6503 28.964 91.4183 29.924C92.1863 30.884 93.3063 31.364 94.7783 31.364C95.7276 31.364 96.5436 31.156 97.2263 30.74C97.9196 30.3133 98.4529 29.7 98.8263 28.9L102.634 30.052C101.973 31.6093 100.949 32.82 99.5623 33.684C98.1863 34.548 96.6663 34.98 95.0023 34.98ZM89.0503 26.932V24.02H100.938V26.932H89.0503ZM110.916 34.98C109.668 34.98 108.612 34.7453 107.748 34.276C106.884 33.796 106.228 33.1613 105.78 32.372C105.342 31.5827 105.124 30.7133 105.124 29.764C105.124 28.932 105.262 28.1853 105.54 27.524C105.817 26.852 106.244 26.276 106.82 25.796C107.396 25.3053 108.142 24.9053 109.06 24.596C109.753 24.372 110.564 24.1693 111.492 23.988C112.43 23.8067 113.444 23.6413 114.532 23.492C115.63 23.332 116.777 23.1613 117.972 22.98L116.596 23.764C116.606 22.5693 116.34 21.6893 115.796 21.124C115.252 20.5587 114.334 20.276 113.044 20.276C112.265 20.276 111.513 20.4573 110.788 20.82C110.062 21.1827 109.556 21.8067 109.268 22.692L105.748 21.588C106.174 20.1267 106.985 18.9533 108.18 18.068C109.385 17.1827 111.006 16.74 113.044 16.74C114.58 16.74 115.929 16.9907 117.092 17.492C118.265 17.9933 119.134 18.8147 119.7 19.956C120.009 20.564 120.196 21.188 120.26 21.828C120.324 22.4573 120.356 23.1453 120.356 23.892V34.5H116.98V30.756L117.54 31.364C116.761 32.612 115.849 33.5293 114.804 34.116C113.769 34.692 112.473 34.98 110.916 34.98ZM111.684 31.908C112.558 31.908 113.305 31.7533 113.924 31.444C114.542 31.1347 115.033 30.756 115.396 30.308C115.769 29.86 116.02 29.4387 116.148 29.044C116.35 28.5533 116.462 27.9933 116.484 27.364C116.516 26.724 116.532 26.2067 116.532 25.812L117.716 26.164C116.553 26.3453 115.556 26.5053 114.724 26.644C113.892 26.7827 113.177 26.916 112.58 27.044C111.982 27.1613 111.454 27.2947 110.996 27.444C110.548 27.604 110.169 27.7907 109.86 28.004C109.55 28.2173 109.31 28.4627 109.14 28.74C108.98 29.0173 108.9 29.3427 108.9 29.716C108.9 30.1427 109.006 30.5213 109.22 30.852C109.433 31.172 109.742 31.428 110.148 31.62C110.564 31.812 111.076 31.908 111.684 31.908ZM136.473 34.5V26.18C136.473 25.636 136.436 25.0333 136.361 24.372C136.287 23.7107 136.111 23.076 135.833 22.468C135.567 21.8493 135.161 21.3427 134.617 20.948C134.084 20.5533 133.359 20.356 132.441 20.356C131.951 20.356 131.465 20.436 130.985 20.596C130.505 20.756 130.068 21.0333 129.673 21.428C129.289 21.812 128.98 22.3453 128.745 23.028C128.511 23.7 128.393 24.564 128.393 25.62L126.105 24.644C126.105 23.172 126.388 21.8387 126.953 20.644C127.529 19.4493 128.372 18.5 129.481 17.796C130.591 17.0813 131.956 16.724 133.577 16.724C134.857 16.724 135.913 16.9373 136.745 17.364C137.577 17.7907 138.239 18.3347 138.729 18.996C139.22 19.6573 139.583 20.3613 139.817 21.108C140.052 21.8547 140.201 22.564 140.265 23.236C140.34 23.8973 140.377 24.436 140.377 24.852V34.5H136.473ZM124.489 34.5V17.22H127.929V22.58H128.393V34.5H124.489ZM154.297 34.98C151.993 34.98 150.019 34.4787 148.377 33.476C146.734 32.4627 145.47 31.0547 144.585 29.252C143.71 27.4493 143.273 25.3587 143.273 22.98C143.273 20.6013 143.71 18.5107 144.585 16.708C145.47 14.9053 146.734 13.5027 148.377 12.5C150.019 11.4867 151.993 10.98 154.297 10.98C156.953 10.98 159.166 11.6467 160.937 12.98C162.707 14.3027 163.95 16.0893 164.665 18.34L160.777 19.412C160.329 17.908 159.566 16.7347 158.489 15.892C157.411 15.0387 156.014 14.612 154.297 14.612C152.75 14.612 151.459 14.9587 150.425 15.652C149.401 16.3453 148.627 17.3213 148.105 18.58C147.593 19.828 147.331 21.2947 147.321 22.98C147.321 24.6653 147.577 26.1373 148.089 27.396C148.611 28.644 149.39 29.6147 150.425 30.308C151.459 31.0013 152.75 31.348 154.297 31.348C156.014 31.348 157.411 30.9213 158.489 30.068C159.566 29.2147 160.329 28.0413 160.777 26.548L164.665 27.62C163.95 29.8707 162.707 31.6627 160.937 32.996C159.166 34.3187 156.953 34.98 154.297 34.98ZM173.01 34.98C171.762 34.98 170.706 34.7453 169.842 34.276C168.978 33.796 168.322 33.1613 167.874 32.372C167.436 31.5827 167.218 30.7133 167.218 29.764C167.218 28.932 167.356 28.1853 167.634 27.524C167.911 26.852 168.338 26.276 168.914 25.796C169.49 25.3053 170.236 24.9053 171.154 24.596C171.847 24.372 172.658 24.1693 173.586 23.988C174.524 23.8067 175.538 23.6413 176.626 23.492C177.724 23.332 178.871 23.1613 180.066 22.98L178.69 23.764C178.7 22.5693 178.434 21.6893 177.89 21.124C177.346 20.5587 176.428 20.276 175.138 20.276C174.359 20.276 173.607 20.4573 172.882 20.82C172.156 21.1827 171.65 21.8067 171.362 22.692L167.842 21.588C168.268 20.1267 169.079 18.9533 170.274 18.068C171.479 17.1827 173.1 16.74 175.138 16.74C176.674 16.74 178.023 16.9907 179.186 17.492C180.359 17.9933 181.228 18.8147 181.794 19.956C182.103 20.564 182.29 21.188 182.354 21.828C182.418 22.4573 182.45 23.1453 182.45 23.892V34.5H179.074V30.756L179.634 31.364C178.855 32.612 177.943 33.5293 176.898 34.116C175.863 34.692 174.567 34.98 173.01 34.98ZM173.778 31.908C174.652 31.908 175.399 31.7533 176.018 31.444C176.636 31.1347 177.127 30.756 177.49 30.308C177.863 29.86 178.114 29.4387 178.242 29.044C178.444 28.5533 178.556 27.9933 178.578 27.364C178.61 26.724 178.626 26.2067 178.626 25.812L179.81 26.164C178.647 26.3453 177.65 26.5053 176.818 26.644C175.986 26.7827 175.271 26.916 174.674 27.044C174.076 27.1613 173.548 27.2947 173.09 27.444C172.642 27.604 172.263 27.7907 171.954 28.004C171.644 28.2173 171.404 28.4627 171.234 28.74C171.074 29.0173 170.994 29.3427 170.994 29.716C170.994 30.1427 171.1 30.5213 171.314 30.852C171.527 31.172 171.836 31.428 172.242 31.62C172.658 31.812 173.17 31.908 173.778 31.908ZM186.615 34.5V17.22H190.023V21.428L189.607 20.884C189.82 20.308 190.103 19.7853 190.455 19.316C190.818 18.836 191.25 18.4413 191.751 18.132C192.178 17.844 192.647 17.62 193.159 17.46C193.682 17.2893 194.215 17.188 194.759 17.156C195.303 17.1133 195.831 17.1347 196.343 17.22V20.82C195.831 20.6707 195.239 20.6227 194.567 20.676C193.906 20.7293 193.308 20.916 192.775 21.236C192.242 21.524 191.804 21.892 191.463 22.34C191.132 22.788 190.887 23.3 190.727 23.876C190.567 24.4413 190.487 25.0547 190.487 25.716V34.5H186.615ZM206.94 34.98C205.19 34.98 203.654 34.6013 202.332 33.844C201.009 33.0867 199.974 32.036 199.228 30.692C198.492 29.348 198.124 27.8013 198.124 26.052C198.124 24.164 198.486 22.5267 199.212 21.14C199.937 19.7427 200.945 18.66 202.236 17.892C203.526 17.124 205.02 16.74 206.716 16.74C208.508 16.74 210.028 17.1613 211.276 18.004C212.534 18.836 213.468 20.0147 214.076 21.54C214.684 23.0653 214.913 24.8627 214.764 26.932H210.94V25.524C210.929 23.6467 210.598 22.276 209.948 21.412C209.297 20.548 208.273 20.116 206.876 20.116C205.297 20.116 204.124 20.6067 203.356 21.588C202.588 22.5587 202.204 23.9827 202.204 25.86C202.204 27.6093 202.588 28.964 203.356 29.924C204.124 30.884 205.244 31.364 206.716 31.364C207.665 31.364 208.481 31.156 209.164 30.74C209.857 30.3133 210.39 29.7 210.764 28.9L214.572 30.052C213.91 31.6093 212.886 32.82 211.5 33.684C210.124 34.548 208.604 34.98 206.94 34.98ZM200.988 26.932V24.02H212.876V26.932H200.988Z" fill="#D9D9D9"/>
</svg>
