<svg width="100" height="100" viewBox="0 0 100 100" fill="none" xmlns="http://www.w3.org/2000/svg">
<g clip-path="url(#clip0_1163_95)">
<path d="M50 73.5413C51.1458 73.5413 52.0833 72.6038 52.0833 71.458C52.0833 70.3122 51.1458 69.3747 50 69.3747C44.375 69.3747 39.7917 64.7913 39.7917 59.1663C39.7917 58.0205 38.8542 57.083 37.7083 57.083C36.5625 57.083 35.625 58.0205 35.625 59.1663C35.625 67.083 42.0833 73.5413 50 73.5413Z" fill="white"/>
<path d="M50.0002 0.520508C22.7085 0.520508 0.520996 22.708 0.520996 49.9997C0.520996 77.2913 22.7085 99.4788 50.0002 99.4788C77.2918 99.4788 99.4793 77.2913 99.4793 49.9997C99.4793 22.708 77.2918 0.520508 50.0002 0.520508ZM50.0002 95.208C25.0002 95.208 4.79183 74.9997 4.79183 49.9997C4.79183 38.2288 9.271 27.6038 16.5627 19.583L34.6877 37.708C30.6252 45.1038 27.0835 53.333 27.0835 59.0622C27.0835 71.6663 37.396 81.9788 50.0002 81.9788C57.9168 81.9788 64.7918 78.0205 68.9585 71.8747L80.521 83.4372C72.396 90.7288 61.6668 95.208 50.0002 95.208ZM67.8127 64.7913L40.0002 36.9788C43.1252 31.5622 46.4585 26.458 49.0627 22.708C49.271 22.3955 49.5835 22.1872 50.0002 22.1872C50.3127 22.1872 50.7293 22.3955 50.9377 22.708C57.5002 31.9788 68.646 50.208 68.646 59.0622C68.646 61.0413 68.3335 63.0205 67.8127 64.7913ZM65.8335 68.8538C62.5002 74.1663 56.6668 77.708 50.0002 77.708C39.6877 77.708 31.3543 69.3747 31.3543 59.0622C31.3543 54.583 34.1668 47.708 37.9168 40.833L65.8335 68.8538ZM83.4377 80.4163L71.0418 68.0205C72.1877 65.3122 72.9168 62.2913 72.9168 59.0622C72.9168 47.083 57.5002 24.583 54.3752 20.208C53.3335 18.7497 51.771 17.9163 50.0002 17.9163C48.2293 17.9163 46.6668 18.7497 45.6252 20.208C44.271 22.083 40.6252 27.3955 36.8752 33.8538L19.5835 16.5622C27.6043 9.27051 38.3335 4.79134 50.0002 4.79134C75.0002 4.79134 95.2085 24.9997 95.2085 49.9997C95.2085 61.6663 90.7293 72.3955 83.4377 80.4163Z" fill="white"/>
</g>
<defs>
<clipPath id="clip0_1163_95">
<rect width="100" height="100" fill="white"/>
</clipPath>
</defs>
</svg>
