<svg width="100" height="103" viewBox="0 0 100 103" fill="none" xmlns="http://www.w3.org/2000/svg">
<g clip-path="url(#clip0_1163_67)">
<path fill-rule="evenodd" clip-rule="evenodd" d="M56.2163 77.2079C59.8932 76.2484 63.2347 74.4651 66.0286 72.0576C65.069 69.8583 63.672 67.8966 61.944 66.2789C61.3623 68.3722 60.6447 70.2956 59.8126 71.9897C58.7808 74.0999 57.5665 75.8704 56.2163 77.2079ZM52.2293 9.89272C51.8429 10.0795 51.4438 10.2112 51.0447 10.2961V26.7787C54.1061 26.8976 57.0357 27.5302 59.7489 28.596V12.8862C59.7489 12.313 60.2159 11.8459 60.7891 11.8459C60.8231 11.8459 60.8528 11.8459 60.8868 11.8502L65.7781 11.8714C65.8163 11.7186 65.8588 11.57 65.914 11.4213C66.3471 10.1816 67.2515 9.10733 68.5294 8.49168C69.8073 7.87602 71.2129 7.83781 72.4527 8.27089C73.6924 8.70398 74.7667 9.61263 75.3823 10.8863V10.8906C75.998 12.1686 76.0362 13.5697 75.6031 14.8096C75.17 16.0494 74.2656 17.1279 72.9877 17.7393H72.9834C71.7054 18.3549 70.3043 18.3931 69.0644 17.9601C67.8246 17.527 66.7504 16.6226 66.1347 15.3446C65.914 14.8903 65.7696 14.419 65.6889 13.9434L61.8294 13.9264V29.5178C64.4448 30.8128 66.814 32.5281 68.8563 34.5661C69.8668 35.5767 70.7924 36.6636 71.6289 37.8228L71.6247 25.1151C71.6247 24.5419 72.0875 24.0791 72.6607 24.0791H80.2142C80.2566 24.0791 80.2991 24.0834 80.3373 24.0876C80.384 23.8626 80.4434 23.6418 80.5199 23.421C80.9529 22.1812 81.8616 21.1028 83.1353 20.4914C84.4133 19.8757 85.8188 19.8375 87.0586 20.2706C88.2983 20.7037 89.3768 21.6123 89.9882 22.886C90.6039 24.164 90.6421 25.5695 90.209 26.8093C89.7759 28.0491 88.8673 29.1275 87.5936 29.7389C86.3155 30.3546 84.9101 30.3928 83.6703 29.9597C82.4305 29.5266 81.3521 28.618 80.7407 27.3443C80.5538 26.9537 80.418 26.5503 80.333 26.1427C80.2906 26.1469 80.2524 26.1511 80.2099 26.1511H73.6924V41.1946C75.5861 44.8589 76.6561 49.0156 76.6561 53.4229C76.6561 60.7853 73.6712 67.4512 68.8478 72.2751C64.0245 77.099 57.3587 80.0833 49.9957 80.0833C42.6333 80.0833 35.9674 77.0984 31.1435 72.2751C26.3196 67.4517 23.3352 60.7859 23.3352 53.4229C23.3352 49.8648 24.0316 46.4681 25.2969 43.3643L25.3011 26.1643L18.6477 26.228C18.6053 26.4233 18.5501 26.6186 18.4822 26.8097C18.0491 28.0495 17.1404 29.1279 15.8667 29.7394C14.5887 30.355 13.1832 30.3932 11.9435 29.9601C10.7037 29.5271 9.62944 28.6184 9.01379 27.3447C8.39812 26.0667 8.35992 24.6612 8.79301 23.4214C9.22609 22.1817 10.1347 21.1032 11.4084 20.4918C12.6865 19.8761 14.0919 19.8379 15.3317 20.271C16.5715 20.7041 17.6457 21.6127 18.2614 22.8864C18.4609 23.2983 18.5968 23.7271 18.6817 24.156L26.3329 24.0796C26.9061 24.0753 27.3732 24.5339 27.3774 25.1071V25.1156H27.3817V39.3014C28.4559 37.5819 29.7211 35.9938 31.1478 34.5672C33.19 32.5249 35.5593 30.8138 38.1747 29.5188V13.9362L34.3873 13.9829C34.3406 14.2632 34.2684 14.5391 34.175 14.8109C33.7419 16.0507 32.8333 17.1291 31.5596 17.7406C30.2815 18.3562 28.8761 18.3944 27.6363 17.9614C26.3965 17.5283 25.3181 16.6239 24.7067 15.3459C24.091 14.0679 24.0528 12.6624 24.4859 11.4227C24.919 10.1829 25.8276 9.10439 27.1013 8.49298C28.3793 7.87732 29.7848 7.83911 31.0246 8.2722C32.2643 8.70528 33.3428 9.61394 33.9542 10.8876C34.1156 11.2231 34.2387 11.5627 34.3194 11.9109L39.1131 11.8515C39.1471 11.8472 39.181 11.8472 39.2192 11.8472C39.7924 11.8472 40.2595 12.3143 40.2595 12.8875V28.5972C42.9726 27.5315 45.9023 26.8946 48.9636 26.78L48.9594 10.2974C48.7386 10.2507 48.522 10.1912 48.3055 10.1148C47.0657 9.68169 45.9915 8.77304 45.3758 7.49935C44.7602 6.2213 44.722 4.81587 45.155 3.57609C45.5881 2.3363 46.4968 1.25783 47.7705 0.646413C49.0485 0.0307495 50.454 -0.00745701 51.6937 0.42563C52.9335 0.858717 54.012 1.76737 54.6234 3.04106V3.04531C55.2391 4.32335 55.2773 5.72444 54.8442 6.96433C54.4111 8.20411 53.5025 9.28259 52.2288 9.89401L52.2293 9.89272ZM48.9896 8.15609C49.2911 8.26224 49.6138 8.32168 49.9365 8.32593C49.9577 8.32593 49.9789 8.32168 50.0002 8.32168C50.0214 8.32168 50.0426 8.32168 50.0639 8.32593C50.4715 8.31744 50.8791 8.22827 51.274 8.04994C51.3122 8.02871 51.3504 8.01173 51.3886 7.99474C52.1189 7.62535 52.6369 6.99695 52.8916 6.27942C53.1422 5.55761 53.1252 4.74235 52.7855 3.99931C52.7643 3.9611 52.743 3.92288 52.7303 3.88467C52.3609 3.15436 51.7325 2.63641 51.015 2.38162C50.2762 2.12262 49.4398 2.1481 48.6755 2.51324C47.9155 2.8784 47.372 3.51953 47.1173 4.25835C46.8583 4.99715 46.8837 5.83357 47.2489 6.59781C47.614 7.35783 48.255 7.89707 48.9896 8.15609ZM28.3201 16.0026C29.0589 16.2616 29.8953 16.2361 30.6595 15.871C31.4196 15.5058 31.963 14.8647 32.2178 14.1259C32.4768 13.3871 32.4513 12.5507 32.0862 11.7864C31.721 11.0264 31.0799 10.483 30.3411 10.2282C29.6023 9.96917 28.7658 9.99465 28.0016 10.3598C27.2416 10.7249 26.6981 11.3661 26.4433 12.1049C26.1843 12.8437 26.2098 13.6801 26.575 14.4444C26.9401 15.2044 27.5812 15.7436 28.3201 16.0026ZM69.7429 16.0026C70.4817 16.2616 71.3181 16.2361 72.0781 15.871C72.8381 15.5016 73.3816 14.8647 73.6364 14.1259C73.8954 13.3871 73.8699 12.5507 73.5048 11.7864C73.1396 11.0264 72.4985 10.483 71.7597 10.2282C71.0209 9.96917 70.1844 9.99465 69.4244 10.3598C68.6644 10.7249 68.121 11.3661 67.8662 12.1049C67.777 12.3554 67.7218 12.6229 67.7006 12.8904V12.9201C67.7006 12.9626 67.6963 13.0008 67.6921 13.0432C67.6794 13.5145 67.777 13.9943 67.9936 14.4444C68.3629 15.2045 69.0041 15.7436 69.7429 16.0026ZM85.3255 61.12C85.4062 60.7506 85.6864 60.4407 86.077 60.3388L96.8532 57.5238L96.849 48.6626L86.0686 45.856C85.6822 45.7541 85.4019 45.4484 85.317 45.079C84.8627 43.0707 84.2386 41.1219 83.4573 39.2451C82.6676 37.3387 81.7165 35.5172 80.6295 33.7976C80.3238 33.3136 80.4682 32.6724 80.9565 32.3668C81.4405 32.0611 82.0817 32.2054 82.3873 32.6937C83.538 34.5195 84.54 36.4428 85.3765 38.4512C86.1153 40.2344 86.7267 42.09 87.1937 44.0091L98.1437 46.8624C98.5896 46.977 98.9207 47.3846 98.9207 47.8644L98.925 58.2881C98.942 58.7637 98.6278 59.2052 98.148 59.3326L87.2023 62.1944C86.7353 64.1177 86.1239 65.9775 85.3808 67.7693C84.6293 69.5823 83.7419 71.3273 82.7271 72.9918L88.4082 82.681C88.6969 83.0886 88.6587 83.6533 88.2978 84.0185L80.8972 91.4191L80.8929 91.4149C80.566 91.7418 80.0522 91.8183 79.6362 91.5762L69.8663 85.8528C68.2019 86.8675 66.4568 87.7549 64.6438 88.5065C62.8605 89.2453 61.005 89.8567 59.0858 90.3237L56.2495 101.189C56.1646 101.677 55.7358 102.051 55.2263 102.051L44.7686 102.043V102.038C44.3058 102.038 43.8854 101.728 43.7665 101.261L40.909 90.3113C38.9941 89.8442 37.1343 89.2328 35.3511 88.494C33.538 87.7424 31.793 86.8551 30.1286 85.8403L20.4393 91.5214C20.0317 91.8101 19.467 91.7719 19.1018 91.411L11.7012 84.0103L11.7054 84.0061C11.3785 83.6791 11.3021 83.1654 11.5441 82.7493L17.2676 72.9794C16.2528 71.3151 15.3654 69.57 14.6139 67.7569C13.8751 65.9737 13.2637 64.1181 12.7966 62.199L1.93126 59.3627C1.44298 59.2778 1.06934 58.8489 1.06934 58.3394V47.8775L1.07358 47.886C1.07358 47.4232 1.38354 47.0028 1.85058 46.8839L12.8006 44.0264C13.2676 42.1115 13.879 40.2518 14.6179 38.4685C15.4501 36.4601 16.4521 34.5368 17.6028 32.711C17.9085 32.227 18.5496 32.0826 19.0336 32.3841C19.5177 32.6898 19.662 33.3309 19.3606 33.8149C18.2736 35.5345 17.3268 37.356 16.537 39.2624C15.76 41.1392 15.1358 43.088 14.6815 45.0963C14.5924 45.4997 14.2782 45.7927 13.9045 45.8818L3.15813 48.6884V57.5538L13.9343 60.3646C14.3207 60.4665 14.6009 60.7722 14.6859 61.1416C15.1402 63.1499 15.7643 65.0987 16.5413 66.9755C17.331 68.8819 18.2779 70.7034 19.3649 72.423C19.5857 72.7754 19.5687 73.2127 19.3564 73.5396L13.7432 83.1142L20.0102 89.3811L29.623 83.7468C29.9669 83.543 30.383 83.5642 30.6972 83.7638C32.4168 84.8507 34.2383 85.7976 36.1447 86.5874C38.0215 87.3644 39.9703 87.9885 41.9786 88.4428C42.382 88.532 42.675 88.8461 42.7599 89.2198L45.5664 99.9662H54.4276L57.2384 89.19C57.3403 88.8036 57.646 88.5234 58.0154 88.4385C60.0237 87.9842 61.9725 87.36 63.8493 86.583C65.7557 85.7933 67.5772 84.8464 69.2968 83.7595C69.6492 83.5387 70.0865 83.5556 70.4134 83.7679L79.988 89.3811L86.2549 83.1141L80.6206 73.5013C80.4168 73.1574 80.438 72.7413 80.6376 72.4271C81.7245 70.7075 82.6714 68.886 83.4612 66.9796C84.2382 65.1028 84.8624 63.154 85.3166 61.1457L85.3255 61.12ZM33.9755 34.7787C34.9351 36.9781 36.332 38.9397 38.0601 40.5574C38.6418 38.4641 39.3593 36.5408 40.1915 34.8466C41.2232 32.7407 42.4376 30.9701 43.7878 29.6284C40.1108 30.588 36.7693 32.3754 33.9755 34.7787ZM39.8179 42.0052C39.9241 42.0816 40.0302 42.1538 40.1363 42.2303C42.6754 43.9669 45.6943 45.0538 48.9594 45.2448V28.9448C46.3227 29.4713 43.9025 31.9764 42.047 35.7595C41.1554 37.5768 40.4039 39.6827 39.8179 42.0052ZM51.0396 45.2407C54.3047 45.0496 57.3236 43.9626 59.8627 42.2261C59.9688 42.1539 60.075 42.0775 60.1811 42.0011C59.5994 39.6828 58.8436 37.5768 57.952 35.7553C56.0966 31.9721 53.6806 29.467 51.0396 28.9406L51.0439 45.2406L51.0396 45.2407ZM61.9429 40.5574C63.6709 38.9397 65.0679 36.9781 66.0275 34.7787C63.2337 32.3756 59.8921 30.5879 56.2152 29.6284C57.5654 30.9701 58.7797 32.7364 59.8115 34.8466C60.6437 36.5408 61.3613 38.4641 61.9429 40.5574ZM67.6197 36.2775C66.3969 38.8123 64.6433 41.0457 62.5034 42.8289C63.1446 45.7755 63.5267 48.9983 63.5904 52.3823H74.5578C74.2988 46.128 71.7043 40.4764 67.6197 36.2775ZM60.665 44.1876C57.8669 46.0134 54.5763 47.1385 51.0394 47.3253V52.3822H61.5099C61.4547 49.495 61.1617 46.7352 60.665 44.1876ZM48.9584 47.3253C45.4216 47.1385 42.131 46.0134 39.3329 44.1876C38.8404 46.7352 38.5432 49.495 38.488 52.3823H48.9584L48.9584 47.3253ZM37.4987 42.8289C35.3587 41.0457 33.6052 38.8165 32.3824 36.2775C28.2978 40.4767 25.6993 46.1238 25.4403 52.3775H36.4077C36.4756 48.9977 36.8575 45.7757 37.4987 42.8289ZM67.6193 70.5637C66.3965 68.0289 64.6429 65.7955 62.503 64.0123C63.1441 61.0657 63.5263 57.8429 63.59 54.4589H74.5574C74.2984 60.7132 71.7039 66.3648 67.6193 70.5637ZM60.1804 64.8402C59.5987 67.1585 58.8429 69.2645 57.9513 71.086C56.0958 74.8691 53.6799 77.3742 51.0389 77.9007V61.6007C54.304 61.7917 57.3228 62.8787 59.8577 64.6152C59.9681 64.6874 60.0742 64.7638 60.1804 64.8402ZM48.9587 61.6005C45.6936 61.7916 42.6747 62.8786 40.1356 64.6151C40.0295 64.6873 39.9233 64.7637 39.8172 64.8401C40.3989 67.1584 41.1547 69.2644 42.0463 71.0859C43.9017 74.8691 46.322 77.3742 48.9587 77.9006L48.9587 61.6005ZM38.0597 66.2838C36.3317 67.9015 34.9347 69.8632 33.9752 72.0625C36.769 74.4657 40.1105 76.2533 43.7875 77.2128C42.4373 75.8711 41.2229 74.1048 40.1912 71.9946C39.359 70.3004 38.6414 68.3813 38.0597 66.2838ZM32.3829 70.5637C33.6057 68.0289 35.3593 65.7955 37.4992 64.0123C36.8581 61.0657 36.4759 57.8429 36.4122 54.4589L25.4405 54.4632C25.6995 60.7132 28.2983 66.3648 32.3829 70.5637ZM39.3377 62.6536C42.1357 60.8278 45.4264 59.7027 48.9632 59.5159V54.459H38.4928C38.548 57.3505 38.8409 60.106 39.3377 62.6536ZM51.0399 59.5159C54.5767 59.7027 57.8672 60.8278 60.6654 62.6536C61.1579 60.106 61.4551 57.3462 61.5103 54.4589H51.0399L51.0399 59.5159ZM84.3573 28.0028C85.096 28.2618 85.9325 28.2364 86.6967 27.8712C87.4567 27.5061 88.0002 26.8649 88.255 26.1261C88.514 25.3873 88.4885 24.5509 88.1233 23.7866C87.7582 23.0266 87.1171 22.4832 86.3782 22.2284C85.6394 21.9694 84.803 21.9949 84.0388 22.36C83.2788 22.7252 82.7353 23.3663 82.4805 24.1051C82.2215 24.8439 82.247 25.6803 82.6121 26.4446C82.9773 27.2046 83.6184 27.7438 84.3573 28.0028ZM12.6268 28.0028C13.3656 28.2618 14.202 28.2364 14.9663 27.8712C15.7263 27.5061 16.2697 26.8649 16.5245 26.1261C16.7835 25.3873 16.7581 24.5509 16.3929 23.7866C16.0278 23.0266 15.3866 22.4832 14.6478 22.2284C13.909 21.9694 13.0726 21.9949 12.3083 22.36C11.5483 22.7252 11.0049 23.3663 10.7501 24.1051C10.4911 24.8439 10.5166 25.6803 10.8817 26.4446C11.2469 27.2046 11.888 27.7438 12.6268 28.0028Z" fill="white"/>
</g>
<defs>
<clipPath id="clip0_1163_67">
<rect width="100" height="102.174" fill="white"/>
</clipPath>
</defs>
</svg>
