<svg width="100" height="100" viewBox="0 0 100 100" fill="none" xmlns="http://www.w3.org/2000/svg">
<g clip-path="url(#clip0_1163_63)">
<path d="M74.9072 44.7639C75.0979 45.2057 75.0142 45.7033 74.6794 46.0474L41.346 81.7617C41.1182 82.0128 40.7973 82.143 40.4764 82.143C40.2997 82.143 40.1091 82.0965 39.9277 82.0128C39.4534 81.7756 39.2022 81.2408 39.3092 80.7154L43.7874 58.3332H26.191C25.726 58.3332 25.2981 58.0589 25.1075 57.631C24.9168 57.2032 24.9866 56.701 25.2981 56.3569L58.6315 18.2616C58.9895 17.8571 59.5615 17.7362 60.0498 17.978C60.5241 18.2151 60.7985 18.7406 60.7055 19.2614L56.19 44.0471H73.8102C74.2846 44.0471 74.7166 44.3314 74.9072 44.7639ZM63.7512 93.7365C59.3194 95.1317 54.6924 95.8338 50 95.8338C35.4535 95.8338 22.094 89.1559 13.3464 77.5112C7.33355 69.5359 4.16676 60.0124 4.16676 50.0005C4.16676 36.7374 9.77498 24.3683 19.643 15.6671V26.1907C19.643 27.1766 20.4428 27.9764 21.4287 27.9764C22.4145 27.9764 23.2144 27.1766 23.2144 26.1907V11.905C23.2144 10.9191 22.4145 10.1193 21.4287 10.1193H7.14295C6.1571 10.1193 5.35724 10.9191 5.35724 11.905C5.35724 12.8908 6.1571 13.6907 7.14295 13.6907H16.5226C6.357 23.0378 0.595215 36.049 0.595215 50.0002C0.595215 60.7982 4.01319 71.0609 10.4864 79.6693C19.9172 92.2157 34.3197 99.405 49.9995 99.405C55.059 99.405 60.0349 98.6423 64.8197 97.145C65.7591 96.8474 66.2846 95.8476 65.987 94.9082C65.6893 93.9642 64.6906 93.4389 63.7512 93.7365ZM92.8571 86.31H83.4775C93.6431 76.9628 99.4049 63.9517 99.4049 50.0005C99.4049 39.2025 95.9869 28.9397 89.5137 20.3314C80.0828 7.78499 65.6803 0.595703 50.0006 0.595703C44.941 0.595703 39.9652 1.35835 35.1803 2.8557C34.241 3.15332 33.7155 4.15308 34.0131 5.09249C34.3107 6.03185 35.3105 6.55737 36.2499 6.25971C40.677 4.8646 45.3087 4.16245 50.0011 4.16245C64.5475 4.16245 77.907 10.8403 86.6547 22.4851C92.6536 30.4742 95.8343 39.9839 95.8343 49.9958C95.8343 63.2589 90.2261 75.6279 80.3581 84.3291V73.8102C80.3581 72.8243 79.5583 72.0245 78.5724 72.0245C77.5865 72.0245 76.7867 72.8243 76.7867 73.8102V88.0959C76.7867 89.0818 77.5865 89.8816 78.5724 89.8816H92.8581C93.844 89.8816 94.6438 89.0818 94.6438 88.0959C94.6438 87.11 93.843 86.31 92.8571 86.31Z" fill="white"/>
</g>
<defs>
<clipPath id="clip0_1163_63">
<rect width="100" height="100" fill="white"/>
</clipPath>
</defs>
</svg>
